<?xml version="1.0" encoding="UTF-8"?>
<svg xmlns="http://www.w3.org/2000/svg" width="1360" height="800">
<rect width="100%" height="100%" fill="#0b1020"/>
<text x="680.0" y="40" text-anchor="middle" fill="#e5e7eb" font-size="32" font-family="Arial">Hybrid-20 Dashboard (Previous Sim, Cleaned)</text>
<text x="680.0" y="62" text-anchor="middle" fill="#94a3b8" font-size="13" font-family="Arial">Stopped periods removed (gap>6h); active segment only</text>
<line x1="95" y1="80" x2="95" y2="675" stroke="#94a3b8"/>
<line x1="95" y1="675" x2="1305" y2="675" stroke="#94a3b8"/>
<line x1="95" y1="473.4" x2="1305" y2="473.4" stroke="#475569" stroke-dasharray="6,4"/>
<line x1="95" y1="80.0" x2="1305" y2="80.0" stroke="#1f2937"/>
<text x="83" y="85.0" text-anchor="end" fill="#94a3b8" font-size="13" font-family="Arial">343.36</text>
<line x1="95" y1="179.2" x2="1305" y2="179.2" stroke="#1f2937"/>
<text x="83" y="184.2" text-anchor="end" fill="#94a3b8" font-size="13" font-family="Arial">256.80</text>
<line x1="95" y1="278.3" x2="1305" y2="278.3" stroke="#1f2937"/>
<text x="83" y="283.3" text-anchor="end" fill="#94a3b8" font-size="13" font-family="Arial">170.25</text>
<line x1="95" y1="377.5" x2="1305" y2="377.5" stroke="#1f2937"/>
<text x="83" y="382.5" text-anchor="end" fill="#94a3b8" font-size="13" font-family="Arial">83.69</text>
<line x1="95" y1="476.7" x2="1305" y2="476.7" stroke="#1f2937"/>
<text x="83" y="481.7" text-anchor="end" fill="#94a3b8" font-size="13" font-family="Arial">-2.87</text>
<line x1="95" y1="575.8" x2="1305" y2="575.8" stroke="#1f2937"/>
<text x="83" y="580.8" text-anchor="end" fill="#94a3b8" font-size="13" font-family="Arial">-89.42</text>
<line x1="95" y1="675.0" x2="1305" y2="675.0" stroke="#1f2937"/>
<text x="83" y="680.0" text-anchor="end" fill="#94a3b8" font-size="13" font-family="Arial">-175.98</text>
<path d="M95.0,466.4 L95.2,459.3 L95.2,442.7 L96.1,452.8 L103.0,446.0 L105.8,448.7 L106.1,457.6 L106.2,459.6 L106.4,456.1 L109.3,451.5 L109.8,470.1 L110.9,475.0 L111.0,466.2 L111.1,460.4 L111.4,448.2 L112.0,441.3 L116.7,446.1 L116.8,449.9 L117.2,466.6 L118.2,462.8 L118.2,465.2 L120.5,468.2 L120.5,477.7 L122.0,481.6 L123.3,468.5 L126.0,488.0 L128.5,489.9 L129.0,496.5 L130.0,490.5 L130.4,485.2 L132.0,487.1 L132.3,496.9 L133.0,507.2 L133.1,509.6 L133.1,516.9 L136.7,521.1 L138.0,517.3 L138.6,513.0 L138.7,506.0 L138.7,508.2 L139.3,526.4 L139.4,518.2 L145.0,511.5 L146.4,513.9 L146.5,523.6 L146.8,516.6 L146.8,522.9 L147.0,515.0 L147.5,505.5 L148.1,494.8 L149.0,502.1 L151.6,504.2 L166.5,513.8 L166.6,517.7 L169.4,521.2 L169.6,511.9 L173.0,452.3 L173.1,443.9 L173.3,446.7 L173.9,453.9 L174.0,445.9 L178.6,448.2 L178.7,460.8 L180.2,433.8 L180.7,391.5 L180.8,388.3 L181.6,400.0 L184.4,411.0 L185.5,406.9 L185.8,410.2 L191.1,404.8 L191.7,397.7 L194.4,393.1 L203.7,388.0 L207.1,392.9 L208.2,399.8 L210.6,409.2 L211.6,405.0 L212.8,401.2 L212.9,407.1 L214.3,412.4 L215.1,415.4 L215.3,410.8 L216.9,404.0 L216.9,376.5 L216.9,380.6 L217.7,372.7 L219.2,369.3 L219.6,372.7 L220.7,374.7 L221.0,380.3 L221.3,377.0 L221.3,385.6 L221.4,377.0 L221.5,372.0 L221.7,364.4 L222.5,369.6 L227.8,381.7 L229.3,378.8 L234.4,383.2 L234.6,373.6 L235.9,376.3 L236.0,378.4 L236.3,380.7 L238.5,381.6 L239.1,383.9 L239.1,378.4 L241.4,380.5 L241.4,382.7 L242.9,385.3 L243.4,390.9 L249.0,397.2 L250.2,400.7 L250.9,403.4 L256.8,400.1 L257.2,403.9 L257.7,395.4 L258.0,384.9 L259.4,398.5 L259.5,408.3 L259.5,407.3 L259.7,414.5 L259.9,410.7 L260.0,414.6 L260.1,421.0 L263.4,432.0 L263.6,441.6 L264.1,442.5 L269.6,446.2 L271.1,444.7 L271.3,437.3 L277.7,439.8 L278.7,452.6 L278.7,437.9 L279.4,408.3 L279.6,412.3 L280.0,415.4 L280.1,418.3 L280.5,433.7 L280.6,425.8 L280.8,427.9 L280.8,431.9 L280.9,437.0 L280.9,427.8 L281.1,433.1 L281.4,435.1 L282.6,437.1 L283.3,432.6 L291.6,429.1 L291.7,424.6 L292.9,437.9 L293.1,431.5 L293.2,422.4 L293.5,429.0 L294.9,434.6 L295.3,431.2 L295.3,433.2 L295.3,438.7 L300.3,425.5 L302.4,421.9 L302.4,431.4 L305.7,429.4 L306.6,432.2 L307.1,437.0 L307.6,427.0 L308.4,421.6 L308.5,417.7 L314.1,412.7 L316.1,426.7 L329.0,420.2 L329.4,427.5 L329.5,428.5 L330.0,427.9 L330.3,415.8 L330.4,427.8 L330.4,437.5 L337.4,431.8 L337.5,428.5 L341.6,430.4 L349.2,433.8 L349.8,426.7 L351.4,423.4 L352.8,419.4 L353.0,415.3 L358.2,411.3 L365.3,424.6 L370.8,430.7 L372.4,446.4 L377.5,450.9 L377.7,440.7 L377.8,444.2 L378.4,430.8 L378.5,441.4 L378.7,435.2 L379.0,437.1 L379.4,428.6 L379.5,424.9 L383.4,433.1 L385.8,423.3 L387.0,414.5 L391.9,418.9 L393.0,420.3 L393.8,410.4 L393.9,428.2 L394.1,421.9 L394.1,418.1 L398.4,416.4 L400.0,414.5 L400.6,422.4 L401.1,413.4 L401.2,404.0 L422.0,394.8 L422.2,391.0 L422.5,395.2 L428.7,382.9 L431.9,390.2 L434.7,394.1 L449.9,388.2 L450.2,403.1 L457.7,411.6 L459.6,414.6 L462.9,407.6 L463.2,404.5 L464.6,399.9 L467.5,408.7 L470.5,405.4 L478.1,408.7 L478.7,381.4 L479.8,385.0 L484.7,381.4 L485.3,384.4 L485.9,381.0 L486.0,383.5 L490.2,386.4 L491.8,324.5 L497.1,323.0 L503.0,319.9 L503.7,324.8 L504.9,339.1 L506.3,331.4 L512.1,328.2 L517.9,336.7 L518.5,336.4 L519.7,330.0 L521.3,326.5 L524.0,338.5 L524.6,335.6 L526.3,348.2 L528.3,358.8 L532.8,355.8 L533.7,373.4 L534.6,365.2 L539.3,359.3 L544.5,362.7 L547.1,350.1 L547.3,361.4 L547.6,350.1 L555.2,346.7 L564.6,360.5 L564.8,365.2 L566.4,367.1 L567.2,382.9 L568.7,363.6 L574.8,379.8 L575.7,384.9 L576.2,378.4 L577.6,381.9 L579.4,384.5 L582.3,393.5 L582.8,401.1 L582.8,398.6 L584.3,394.7 L586.0,404.0 L589.4,407.5 L609.7,424.2 L617.0,410.0 L617.9,414.4 L618.1,409.8 L619.7,398.9 L624.0,404.2 L632.7,409.1 L632.8,425.1 L634.1,420.8 L634.4,427.1 L634.4,419.5 L641.5,413.5 L646.6,403.5 L654.5,420.2 L654.7,411.5 L660.0,415.8 L660.6,422.2 L661.8,424.8 L664.5,429.4 L667.6,416.6 L668.6,410.4 L669.3,414.5 L669.5,397.1 L669.7,377.0 L671.0,366.7 L671.3,361.6 L672.9,379.2 L673.1,386.4 L675.2,391.5 L676.2,397.6 L679.0,394.6 L680.6,407.2 L683.2,405.9 L683.3,409.8 L683.5,419.4 L688.5,415.0 L689.8,423.4 L690.2,438.5 L692.4,433.9 L692.4,424.4 L692.7,395.7 L693.9,397.9 L694.3,409.3 L694.9,402.4 L696.0,412.3 L698.0,401.9 L699.2,405.7 L699.6,414.4 L699.6,420.0 L699.9,433.8 L701.1,436.6 L701.2,422.8 L701.6,418.7 L702.7,401.2 L702.7,393.4 L704.0,405.4 L704.3,357.3 L704.5,361.0 L704.7,364.5 L704.9,367.9 L705.2,355.8 L706.2,350.2 L706.2,364.7 L706.4,358.9 L708.0,362.8 L708.2,369.3 L708.3,364.6 L708.6,357.6 L708.6,362.9 L708.7,373.1 L709.7,350.0 L709.8,338.9 L710.0,339.8 L710.3,336.5 L710.5,343.1 L710.5,345.2 L711.3,322.3 L711.6,325.3 L711.9,331.6 L712.0,337.5 L712.1,340.5 L713.1,334.0 L714.7,323.1 L715.0,325.6 L715.1,322.6 L715.6,326.6 L717.8,329.4 L718.0,333.1 L718.3,339.6 L718.4,332.3 L718.5,335.6 L718.6,324.7 L718.7,330.2 L719.1,333.0 L719.2,336.3 L721.0,338.7 L722.2,352.0 L722.5,344.2 L722.6,336.8 L724.4,332.7 L724.6,313.8 L727.3,298.2 L727.9,294.9 L728.5,285.6 L728.6,282.0 L729.0,280.2 L729.1,283.6 L729.3,280.3 L729.3,284.4 L729.3,265.0 L729.4,261.2 L729.7,267.1 L729.8,256.0 L730.0,252.4 L730.0,252.0 L730.3,241.8 L730.6,255.2 L731.3,238.0 L731.4,245.6 L731.4,239.9 L731.6,243.4 L732.7,251.0 L732.7,253.3 L736.5,264.3 L736.5,265.2 L738.0,263.2 L738.1,240.3 L739.6,246.5 L740.0,254.1 L740.1,267.6 L740.4,263.4 L740.4,252.9 L741.1,248.9 L741.5,256.8 L744.7,262.7 L745.0,259.2 L745.5,261.2 L746.0,195.1 L746.2,189.0 L746.5,198.8 L746.5,200.7 L747.3,189.6 L747.4,186.8 L747.5,195.3 L748.2,200.7 L748.7,206.0 L748.8,254.3 L749.3,250.9 L749.5,256.0 L750.2,237.2 L750.4,245.8 L750.5,242.3 L750.6,252.0 L751.8,257.2 L751.9,250.3 L752.3,260.4 L752.4,267.2 L752.6,268.3 L752.9,262.1 L753.5,234.3 L753.8,243.7 L754.1,250.4 L754.2,252.9 L754.5,259.6 L754.5,257.9 L755.2,263.1 L755.3,266.6 L755.3,278.4 L755.4,274.7 L755.9,283.3 L756.9,292.8 L757.3,296.6 L757.4,293.7 L757.8,259.3 L758.0,269.2 L758.0,248.2 L758.0,253.5 L758.9,259.6 L759.0,234.0 L759.0,239.5 L759.0,247.4 L759.5,244.2 L759.6,248.2 L760.3,253.5 L761.1,224.9 L761.2,205.9 L761.2,212.2 L761.3,216.4 L761.4,212.9 L761.4,207.3 L761.4,223.7 L761.5,232.8 L769.0,229.6 L770.0,234.9 L772.9,230.5 L776.5,226.0 L778.9,235.1 L780.6,229.5 L780.8,240.4 L780.9,227.1 L783.9,221.2 L784.2,218.2 L784.6,211.7 L785.9,218.0 L787.0,227.7 L787.2,199.2 L787.5,202.0 L788.0,215.9 L789.2,204.1 L789.5,210.6 L789.7,230.4 L789.8,217.3 L789.9,223.2 L790.6,227.0 L790.9,234.0 L791.4,244.2 L791.6,262.9 L792.3,259.0 L792.5,270.7 L794.0,273.6 L794.3,286.8 L795.2,292.9 L795.4,289.1 L795.8,291.0 L795.9,286.6 L796.0,278.9 L796.2,282.7 L796.3,285.7 L796.4,281.1 L796.5,277.7 L796.6,280.8 L796.8,293.1 L802.1,290.2 L802.7,287.4 L804.0,291.0 L804.6,287.9 L805.1,273.9 L805.3,280.0 L805.7,288.2 L806.5,276.7 L807.1,282.5 L807.2,263.2 L807.4,260.2 L808.3,267.8 L808.8,251.1 L809.4,248.0 L810.5,228.6 L810.7,232.4 L810.9,234.3 L811.6,214.8 L812.3,197.0 L813.2,199.3 L815.2,203.9 L815.6,195.3 L815.8,181.2 L816.5,178.3 L820.6,174.4 L820.6,186.4 L820.7,192.1 L820.7,195.1 L821.3,203.7 L821.4,196.8 L822.3,198.8 L822.7,202.1 L822.8,199.0 L822.8,189.6 L822.9,182.3 L823.1,184.4 L824.2,178.1 L824.4,180.8 L824.7,185.0 L825.1,196.0 L825.6,205.6 L826.9,201.4 L827.5,211.9 L827.6,217.3 L827.6,210.7 L827.9,213.2 L828.1,204.7 L828.2,200.4 L829.4,193.8 L829.8,182.0 L830.0,199.5 L830.4,194.1 L831.2,196.2 L831.2,200.7 L831.3,204.1 L831.4,200.1 L831.8,210.7 L831.9,218.8 L831.9,214.7 L832.0,219.9 L833.1,224.2 L833.1,226.6 L833.3,229.2 L834.7,232.4 L835.2,236.3 L835.2,240.1 L835.3,236.2 L835.7,247.0 L836.7,265.9 L837.1,269.4 L837.3,266.8 L839.8,262.3 L840.8,274.3 L840.9,270.0 L843.4,266.6 L843.7,268.9 L844.1,277.7 L844.5,270.0 L844.8,272.2 L845.1,274.5 L845.1,276.8 L845.1,273.8 L845.4,270.3 L845.4,279.1 L845.5,290.4 L845.6,263.2 L845.7,274.7 L845.7,261.5 L846.2,249.5 L846.2,251.7 L846.8,244.6 L846.9,240.2 L847.8,247.0 L848.0,249.6 L849.5,256.0 L849.8,246.9 L852.3,252.9 L852.7,249.0 L852.8,252.9 L852.9,256.0 L853.0,260.7 L853.1,280.4 L854.3,277.2 L854.6,274.3 L855.2,291.0 L855.8,277.4 L856.1,279.5 L856.4,282.0 L856.6,271.9 L856.6,264.3 L856.8,285.2 L857.0,282.1 L857.0,285.6 L858.6,291.2 L859.6,299.3 L859.6,302.9 L859.7,304.9 L859.9,317.0 L860.1,275.0 L860.2,260.8 L862.2,251.4 L866.9,240.0 L867.4,231.1 L868.8,221.0 L868.9,230.0 L869.3,214.4 L870.4,224.8 L873.0,228.9 L873.5,221.0 L874.0,236.4 L874.1,239.7 L874.3,232.5 L874.4,235.2 L875.6,231.3 L876.1,226.9 L876.8,224.1 L876.9,228.9 L876.9,231.5 L877.2,225.3 L877.3,227.2 L877.6,221.2 L878.4,208.6 L879.0,202.2 L879.5,199.0 L879.5,194.4 L880.2,209.0 L880.7,201.9 L881.4,210.6 L881.5,204.7 L882.8,199.5 L884.2,191.9 L884.6,184.8 L885.3,192.2 L885.9,198.5 L886.0,188.4 L886.1,181.1 L886.4,200.1 L886.5,202.7 L886.6,189.6 L886.7,186.7 L886.8,178.4 L886.8,165.0 L886.9,182.1 L886.9,186.2 L887.2,182.8 L887.4,188.1 L887.7,204.2 L889.5,200.0 L889.6,207.7 L890.1,200.8 L890.2,184.4 L890.2,186.5 L890.2,188.5 L891.4,180.7 L891.7,173.2 L891.7,175.7 L892.9,185.3 L893.0,181.2 L893.3,184.8 L893.3,174.4 L893.5,170.8 L894.1,174.0 L894.2,177.9 L894.3,168.0 L894.6,179.0 L894.7,181.0 L894.7,177.0 L894.9,187.8 L894.9,191.5 L895.1,181.8 L895.1,178.7 L895.3,188.1 L895.5,195.4 L896.6,198.5 L896.7,206.4 L896.9,211.8 L897.0,206.3 L897.3,201.2 L897.5,208.5 L898.3,200.3 L898.9,212.8 L899.8,201.3 L900.0,197.9 L900.1,196.6 L900.6,192.8 L901.7,184.7 L901.8,194.4 L902.0,191.1 L928.8,186.0 L930.0,192.3 L931.7,200.4 L934.1,197.0 L937.6,210.5 L940.9,201.0 L942.2,194.1 L942.3,187.5 L942.4,181.3 L942.7,189.3 L942.9,198.3 L942.9,203.2 L951.4,206.3 L954.1,211.6 L956.7,224.2 L957.2,229.2 L957.4,202.6 L957.7,197.8 L958.0,189.1 L958.3,179.1 L958.8,186.7 L958.9,202.0 L962.3,206.3 L962.3,223.8 L964.1,259.0 L967.9,261.2 L974.6,263.8 L975.4,260.3 L976.1,254.9 L976.7,261.2 L976.8,274.2 L978.5,278.1 L979.6,280.2 L979.8,294.7 L980.2,284.7 L983.6,288.4 L983.9,292.9 L984.0,291.7 L986.8,292.7 L988.5,306.4 L989.1,322.2 L989.1,318.1 L991.1,313.6 L994.5,327.4 L996.3,342.0 L996.4,345.5 L997.7,350.4 L998.2,347.3 L1001.1,350.5 L1002.6,346.1 L1002.7,348.1 L1004.5,342.6 L1004.7,358.2 L1007.9,362.2 L1008.3,366.5 L1008.4,375.8 L1008.5,371.6 L1008.6,374.2 L1009.7,376.4 L1009.7,380.5 L1010.6,388.2 L1012.2,380.9 L1013.2,372.3 L1013.4,364.3 L1014.0,348.1 L1015.2,340.2 L1016.9,328.5 L1017.0,335.1 L1017.0,332.1 L1017.1,336.6 L1017.3,322.0 L1018.6,316.6 L1019.1,324.7 L1019.2,320.7 L1020.1,315.8 L1020.3,328.0 L1020.5,330.1 L1024.2,316.4 L1024.3,325.6 L1024.5,330.8 L1025.4,333.1 L1025.5,320.7 L1025.9,326.4 L1026.4,323.0 L1026.6,326.4 L1026.8,314.9 L1027.3,310.9 L1027.5,313.9 L1027.5,315.9 L1028.0,319.6 L1029.5,330.6 L1029.5,338.0 L1029.6,333.0 L1029.7,344.2 L1029.8,346.3 L1031.5,349.5 L1032.5,359.0 L1032.6,353.6 L1032.9,364.7 L1032.9,380.0 L1033.3,372.6 L1033.3,386.6 L1033.9,385.7 L1036.8,392.9 L1036.9,396.8 L1038.1,402.9 L1038.1,399.2 L1038.2,396.4 L1042.1,399.8 L1043.1,383.7 L1043.9,386.2 L1044.0,389.3 L1046.5,395.4 L1047.6,397.4 L1048.7,403.0 L1048.7,409.6 L1048.7,404.6 L1048.9,399.2 L1049.1,380.4 L1049.1,390.2 L1049.2,396.3 L1049.7,395.1 L1049.7,383.2 L1049.8,379.9 L1049.9,385.5 L1050.0,400.1 L1050.2,405.7 L1050.2,412.8 L1050.4,409.4 L1050.4,411.5 L1050.4,401.3 L1050.5,397.2 L1050.5,402.0 L1050.5,405.8 L1054.2,398.8 L1054.6,410.2 L1055.6,412.9 L1056.4,419.9 L1056.5,415.9 L1056.9,418.0 L1057.1,413.4 L1057.1,409.7 L1057.3,412.0 L1057.4,415.1 L1057.4,420.9 L1057.5,417.7 L1057.6,410.3 L1057.8,404.3 L1057.8,398.5 L1057.9,412.4 L1062.2,423.2 L1062.3,420.0 L1062.4,398.3 L1067.8,402.1 L1068.0,391.2 L1068.1,368.3 L1068.6,385.2 L1069.8,392.6 L1072.0,384.1 L1072.2,394.2 L1072.2,398.9 L1075.0,404.6 L1075.6,391.7 L1076.4,384.6 L1076.9,386.8 L1076.9,381.1 L1080.0,373.7 L1080.0,381.9 L1080.3,384.7 L1081.0,371.9 L1082.4,375.0 L1085.0,377.0 L1085.0,359.4 L1085.2,345.4 L1085.5,331.1 L1085.8,340.1 L1086.0,349.1 L1086.3,355.4 L1087.5,339.0 L1087.7,343.2 L1089.7,304.3 L1089.9,311.2 L1091.5,298.9 L1092.1,295.5 L1092.6,297.5 L1093.8,300.4 L1094.6,308.8 L1094.7,315.2 L1100.4,323.5 L1100.5,331.5 L1101.6,343.6 L1103.8,340.4 L1103.9,336.6 L1104.1,340.7 L1105.4,342.9 L1105.7,357.3 L1106.9,364.3 L1108.5,360.2 L1109.3,362.5 L1109.8,357.6 L1110.9,359.9 L1112.2,356.1 L1113.3,358.9 L1117.7,355.6 L1117.7,358.5 L1119.1,365.8 L1122.6,375.6 L1123.0,367.5 L1123.2,342.5 L1123.3,355.8 L1124.6,364.3 L1125.0,366.9 L1125.1,378.4 L1125.3,391.0 L1125.6,386.1 L1125.8,392.3 L1126.0,400.2 L1126.1,394.4 L1126.5,387.8 L1126.7,397.0 L1127.5,401.0 L1127.6,413.8 L1128.1,421.6 L1128.2,396.8 L1128.6,391.9 L1128.6,394.6 L1128.6,397.6 L1128.7,407.0 L1128.8,410.0 L1129.3,431.9 L1129.9,416.2 L1130.2,429.0 L1130.6,409.0 L1131.7,412.3 L1132.0,407.8 L1132.7,409.9 L1133.1,417.6 L1133.3,423.7 L1133.4,426.3 L1133.6,432.8 L1133.6,429.8 L1134.1,433.8 L1134.5,430.4 L1135.3,434.2 L1135.6,436.4 L1138.4,424.1 L1139.9,431.0 L1140.3,423.9 L1142.1,420.8 L1142.2,403.5 L1142.7,399.5 L1142.8,408.7 L1143.2,405.0 L1143.4,419.1 L1143.9,425.6 L1144.0,420.9 L1144.1,414.3 L1144.2,411.4 L1144.5,390.7 L1145.2,399.8 L1145.3,403.6 L1145.7,406.6 L1145.9,409.9 L1146.0,405.5 L1146.2,411.8 L1147.4,415.9 L1147.6,419.8 L1148.1,424.8 L1148.6,421.6 L1148.6,418.7 L1149.0,410.1 L1149.4,421.0 L1149.4,425.5 L1149.8,428.4 L1149.8,445.0 L1151.1,448.4 L1151.7,453.3 L1152.1,458.1 L1152.4,469.7 L1154.2,466.0 L1154.2,461.9 L1154.8,472.0 L1155.6,474.5 L1155.9,469.5 L1155.9,461.5 L1156.1,465.8 L1156.2,473.7 L1156.4,481.2 L1156.5,487.7 L1156.7,496.3 L1156.8,491.2 L1157.8,494.5 L1158.3,508.9 L1158.6,511.1 L1158.6,500.0 L1159.2,503.0 L1159.6,508.8 L1160.0,505.5 L1160.1,496.5 L1160.4,488.6 L1161.7,492.1 L1162.2,482.2 L1162.8,475.0 L1163.7,485.4 L1164.9,492.6 L1165.4,488.3 L1165.5,490.3 L1165.8,495.9 L1166.3,505.3 L1166.8,516.8 L1168.0,507.4 L1168.8,515.5 L1169.0,523.9 L1169.8,497.2 L1169.9,486.5 L1170.6,490.0 L1175.3,485.9 L1176.2,495.2 L1176.9,488.7 L1178.2,494.3 L1178.7,505.8 L1178.7,510.3 L1178.9,506.7 L1179.7,490.8 L1179.8,493.0 L1180.4,483.5 L1180.5,487.0 L1181.6,495.2 L1181.7,513.0 L1181.8,507.8 L1182.4,510.9 L1182.9,515.6 L1183.1,512.4 L1183.6,492.9 L1183.8,486.0 L1184.1,494.2 L1184.2,502.8 L1184.4,499.8 L1184.6,506.9 L1186.0,501.2 L1186.0,503.2 L1186.3,492.1 L1186.5,487.6 L1187.7,481.3 L1187.7,469.9 L1187.7,479.3 L1190.0,491.4 L1191.1,483.8 L1191.3,479.1 L1191.6,460.8 L1194.6,466.8 L1194.6,471.1 L1195.2,473.3 L1196.9,482.6 L1197.0,494.1 L1197.3,436.0 L1198.1,425.1 L1198.6,427.0 L1199.3,436.8 L1200.4,441.4 L1201.8,437.6 L1202.0,448.3 L1202.1,453.8 L1202.5,443.7 L1203.6,438.4 L1204.2,434.3 L1204.4,448.5 L1204.7,456.9 L1205.2,459.1 L1205.9,462.2 L1206.0,465.8 L1206.0,423.8 L1206.1,416.4 L1209.7,426.7 L1211.1,401.1 L1212.5,406.2 L1214.1,411.5 L1214.6,408.2 L1214.6,402.1 L1214.8,383.5 L1215.0,395.3 L1215.1,404.0 L1217.6,421.6 L1218.6,418.8 L1223.5,420.7 L1223.6,423.2 L1223.8,437.5 L1223.9,432.7 L1224.5,434.7 L1225.0,447.2 L1225.2,453.1 L1229.1,457.9 L1232.1,466.9 L1236.4,481.5 L1239.0,484.3 L1239.9,487.0 L1240.2,497.3 L1240.7,475.6 L1241.3,489.3 L1242.8,485.7 L1243.1,480.7 L1243.4,484.1 L1244.1,486.8 L1248.4,492.6 L1250.2,482.5 L1251.7,487.2 L1251.7,495.1 L1252.2,497.9 L1254.2,508.9 L1254.8,501.7 L1255.2,511.7 L1255.3,515.9 L1255.7,518.4 L1255.9,514.5 L1257.4,524.4 L1259.1,529.6 L1261.3,532.0 L1262.0,547.7 L1262.3,544.4 L1262.5,553.1 L1262.8,561.3 L1262.8,555.4 L1263.9,552.2 L1264.0,566.7 L1264.6,571.1 L1265.0,573.1 L1265.4,576.6 L1294.3,586.6 L1294.6,581.2 L1295.8,590.0 L1296.0,565.6 L1297.3,570.8 L1299.0,575.7 L1299.2,571.6 L1300.3,568.4 L1301.2,575.5 L1301.4,570.4 L1302.8,565.9 L1303.0,562.2 L1303.2,543.4 L1303.4,540.0 L1304.6,553.1 L1305.0,544.5" fill="none" stroke="#22c55e" stroke-width="4"/>
<circle cx="1305.0" cy="544.5" r="5" fill="#22c55e"/>
<line x1="95.0" y1="675" x2="95.0" y2="681" stroke="#94a3b8"/>
<text x="95.0" y="699" text-anchor="middle" fill="#94a3b8" font-size="13" font-family="Arial">2026-03-13</text>
<line x1="296.7" y1="675" x2="296.7" y2="681" stroke="#94a3b8"/>
<text x="296.7" y="699" text-anchor="middle" fill="#94a3b8" font-size="13" font-family="Arial">2026-03-14</text>
<line x1="498.3" y1="675" x2="498.3" y2="681" stroke="#94a3b8"/>
<text x="498.3" y="699" text-anchor="middle" fill="#94a3b8" font-size="13" font-family="Arial">2026-03-15</text>
<line x1="700.0" y1="675" x2="700.0" y2="681" stroke="#94a3b8"/>
<text x="700.0" y="699" text-anchor="middle" fill="#94a3b8" font-size="13" font-family="Arial">2026-03-16</text>
<line x1="901.7" y1="675" x2="901.7" y2="681" stroke="#94a3b8"/>
<text x="901.7" y="699" text-anchor="middle" fill="#94a3b8" font-size="13" font-family="Arial">2026-03-17</text>
<line x1="1103.3" y1="675" x2="1103.3" y2="681" stroke="#94a3b8"/>
<text x="1103.3" y="699" text-anchor="middle" fill="#94a3b8" font-size="13" font-family="Arial">2026-03-19</text>
<line x1="1305.0" y1="675" x2="1305.0" y2="681" stroke="#94a3b8"/>
<text x="1305.0" y="699" text-anchor="middle" fill="#94a3b8" font-size="13" font-family="Arial">2026-03-20</text>
<text x="95" y="775" fill="#cbd5e1" font-size="14" font-family="Arial">Latest active point: 2026-03-20T06:57:20.423000+00:00 | Realized=-62.12</text>
</svg>