<?xml version="1.0" encoding="UTF-8"?>
<svg xmlns="http://www.w3.org/2000/svg" width="1360" height="800">
<rect width="100%" height="100%" fill="#0b1020"/>
<text x="680.0" y="40" text-anchor="middle" fill="#e5e7eb" font-size="32" font-family="Arial">Hybrid-30 Dashboard (Previous Sim, Cleaned)</text>
<text x="680.0" y="62" text-anchor="middle" fill="#94a3b8" font-size="13" font-family="Arial">Stopped periods removed (gap>6h); active segment only</text>
<line x1="95" y1="80" x2="95" y2="675" stroke="#94a3b8"/>
<line x1="95" y1="675" x2="1305" y2="675" stroke="#94a3b8"/>
<line x1="95" y1="462.3" x2="1305" y2="462.3" stroke="#475569" stroke-dasharray="6,4"/>
<line x1="95" y1="80.0" x2="1305" y2="80.0" stroke="#1f2937"/>
<text x="83" y="85.0" text-anchor="end" fill="#94a3b8" font-size="13" font-family="Arial">147.15</text>
<line x1="95" y1="179.2" x2="1305" y2="179.2" stroke="#1f2937"/>
<text x="83" y="184.2" text-anchor="end" fill="#94a3b8" font-size="13" font-family="Arial">108.98</text>
<line x1="95" y1="278.3" x2="1305" y2="278.3" stroke="#1f2937"/>
<text x="83" y="283.3" text-anchor="end" fill="#94a3b8" font-size="13" font-family="Arial">70.81</text>
<line x1="95" y1="377.5" x2="1305" y2="377.5" stroke="#1f2937"/>
<text x="83" y="382.5" text-anchor="end" fill="#94a3b8" font-size="13" font-family="Arial">32.65</text>
<line x1="95" y1="476.7" x2="1305" y2="476.7" stroke="#1f2937"/>
<text x="83" y="481.7" text-anchor="end" fill="#94a3b8" font-size="13" font-family="Arial">-5.52</text>
<line x1="95" y1="575.8" x2="1305" y2="575.8" stroke="#1f2937"/>
<text x="83" y="580.8" text-anchor="end" fill="#94a3b8" font-size="13" font-family="Arial">-43.69</text>
<line x1="95" y1="675.0" x2="1305" y2="675.0" stroke="#1f2937"/>
<text x="83" y="680.0" text-anchor="end" fill="#94a3b8" font-size="13" font-family="Arial">-81.86</text>
<path d="M95.0,465.3 L95.6,471.7 L97.1,479.0 L111.4,475.2 L136.1,478.0 L137.3,492.6 L137.4,475.9 L138.3,442.4 L138.5,446.8 L138.9,450.4 L139.0,453.7 L139.5,471.2 L139.7,462.1 L139.9,464.6 L139.9,469.1 L140.0,474.9 L140.0,464.5 L140.2,470.5 L140.5,472.7 L142.0,475.0 L142.8,469.9 L152.7,465.9 L152.7,460.8 L154.2,475.8 L154.5,468.6 L154.5,458.3 L154.9,465.9 L156.6,472.2 L157.0,468.3 L157.0,470.6 L157.1,476.8 L163.0,461.8 L165.5,457.8 L165.5,468.6 L169.4,466.3 L170.5,469.4 L171.0,474.9 L171.6,463.5 L172.6,457.4 L172.7,453.0 L179.4,447.3 L181.7,463.2 L197.0,455.8 L197.5,464.1 L197.6,465.3 L198.2,464.5 L198.6,450.8 L198.6,464.4 L198.7,475.5 L206.9,468.9 L207.0,465.2 L212.0,467.4 L220.9,471.2 L221.6,463.2 L223.6,459.5 L225.2,454.9 L225.4,450.3 L231.6,445.7 L240.1,460.8 L246.5,467.7 L248.4,485.5 L254.4,490.6 L254.7,479.0 L254.9,483.0 L255.5,467.9 L255.7,479.8 L255.9,472.8 L256.2,475.0 L256.7,465.4 L256.9,461.2 L261.5,470.4 L265.8,461.1 L271.5,466.1 L272.8,467.7 L273.8,456.4 L273.9,476.6 L274.1,469.5 L274.1,465.1 L279.2,463.3 L281.1,461.1 L281.9,470.1 L282.5,459.9 L282.5,449.2 L307.2,438.8 L307.5,434.5 L307.8,439.2 L315.2,425.3 L319.0,433.6 L322.2,437.9 L340.3,431.2 L340.7,448.1 L349.6,457.8 L355.6,450.9 L356.0,447.4 L357.7,442.2 L361.2,452.2 L364.7,448.5 L372.0,444.7 L373.7,448.5 L374.4,417.5 L375.7,421.5 L381.5,417.5 L382.2,420.9 L382.9,417.0 L383.1,419.9 L388.0,423.2 L389.9,353.0 L396.1,351.3 L404.1,356.8 L405.4,373.5 L407.1,364.8 L414.0,361.1 L420.8,370.8 L421.5,370.4 L423.0,363.2 L424.8,359.2 L428.1,372.8 L428.8,369.5 L430.8,383.8 L433.2,395.8 L438.5,392.4 L439.6,412.3 L440.7,403.1 L446.2,396.4 L452.4,400.2 L455.5,386.0 L455.7,398.8 L456.1,385.9 L465.1,382.1 L476.2,397.7 L476.4,403.1 L478.4,405.2 L479.3,423.2 L481.1,401.3 L488.3,419.7 L489.3,425.4 L489.9,418.0 L491.6,422.1 L493.7,425.0 L497.2,435.2 L497.7,443.8 L497.8,440.9 L499.5,436.5 L501.5,447.1 L505.5,451.1 L529.6,470.0 L538.3,453.9 L539.3,458.9 L539.6,453.7 L541.5,441.3 L546.5,447.3 L556.9,452.8 L557.0,471.0 L558.6,466.1 L558.9,473.3 L559.0,464.7 L567.4,457.9 L573.4,446.5 L582.7,465.4 L583.0,455.6 L589.2,460.4 L590.0,467.8 L591.4,470.6 L594.6,475.9 L598.3,461.4 L599.5,454.3 L600.3,459.0 L600.5,439.3 L600.7,416.4 L602.3,404.8 L602.7,399.0 L604.6,419.0 L604.8,427.1 L607.2,432.9 L608.4,439.8 L611.7,436.4 L613.6,450.7 L616.8,449.2 L616.9,453.7 L617.2,464.6 L623.0,459.5 L624.6,469.1 L625.1,486.2 L627.6,481.0 L627.7,470.2 L628.0,437.7 L629.4,440.1 L629.8,453.1 L630.6,445.3 L631.9,456.5 L634.3,444.7 L635.7,449.1 L636.1,458.9 L636.2,465.2 L636.5,480.8 L637.9,484.1 L638.1,468.4 L638.6,463.8 L639.9,443.9 L639.9,435.0 L641.4,448.7 L641.7,394.1 L642.0,398.3 L642.2,402.3 L642.5,406.1 L642.8,388.2 L642.8,395.5 L644.0,389.2 L644.0,405.7 L644.2,399.1 L646.1,403.5 L646.4,410.9 L646.5,405.5 L646.8,397.5 L646.9,403.6 L647.0,415.2 L648.2,389.0 L648.3,376.4 L648.5,377.4 L648.9,373.6 L649.1,381.2 L649.1,383.5 L650.0,357.5 L650.3,360.9 L650.7,368.1 L650.9,374.8 L651.0,378.2 L652.2,370.8 L654.1,358.5 L654.5,361.2 L654.6,357.8 L655.1,362.5 L657.8,365.6 L658.0,369.8 L658.3,377.1 L658.5,368.9 L658.6,372.6 L658.7,360.3 L658.8,366.5 L659.3,369.7 L659.4,373.4 L661.5,376.2 L662.9,391.2 L663.3,382.4 L663.3,390.1 L665.5,397.1 L665.6,392.3 L665.8,370.9 L669.0,353.3 L669.7,349.5 L670.4,339.0 L670.6,334.9 L671.0,332.8 L671.1,336.7 L671.3,332.9 L671.3,337.6 L671.4,315.6 L671.5,311.3 L671.9,318.0 L672.0,305.4 L672.2,301.3 L672.2,300.8 L672.5,289.3 L672.9,304.5 L673.8,285.0 L673.8,293.6 L673.9,287.1 L674.0,291.1 L675.4,299.8 L675.4,302.3 L679.9,314.8 L679.9,315.8 L681.7,313.5 L681.8,287.6 L682.1,294.6 L683.6,301.7 L684.1,310.3 L684.1,325.6 L684.5,320.9 L684.5,308.9 L685.4,304.4 L685.9,313.4 L689.6,320.1 L690.0,316.1 L690.6,318.3 L691.2,243.4 L691.4,236.5 L691.7,247.6 L691.8,249.8 L692.7,237.1 L692.8,234.0 L692.9,243.7 L693.8,249.8 L694.3,255.8 L694.4,310.5 L695.1,306.7 L695.3,312.4 L696.1,291.2 L696.4,300.9 L696.5,296.9 L696.6,307.9 L698.1,313.9 L698.1,306.1 L698.7,317.5 L698.7,325.2 L699.0,326.4 L699.3,319.4 L700.0,287.9 L700.4,298.6 L700.7,306.2 L700.8,309.0 L701.2,316.5 L701.2,314.6 L701.9,323.7 L702.0,329.6 L702.1,333.6 L702.3,329.5 L702.8,339.2 L704.0,350.0 L704.7,346.6 L705.1,307.6 L705.3,318.9 L705.4,295.1 L705.4,301.1 L706.5,308.0 L706.5,279.0 L706.6,288.0 L707.2,284.3 L707.3,288.8 L708.1,294.9 L709.0,262.4 L709.1,240.9 L709.2,248.0 L709.3,252.7 L709.4,248.8 L709.4,267.4 L709.5,277.6 L718.4,274.0 L719.6,268.6 L723.1,263.7 L727.3,258.6 L730.1,268.9 L732.1,262.5 L732.4,274.8 L732.5,259.8 L736.1,253.1 L736.4,249.7 L736.9,242.3 L738.5,249.5 L739.8,260.5 L740.0,250.2 L740.0,217.9 L740.4,221.1 L741.0,236.9 L742.7,244.2 L742.9,266.6 L743.1,251.8 L743.2,258.5 L744.1,262.9 L744.4,270.7 L745.1,291.8 L746.3,305.1 L747.4,293.9 L748.1,297.2 L748.4,312.1 L749.5,319.1 L749.7,314.8 L750.2,316.9 L750.3,311.9 L750.5,303.2 L750.7,307.5 L750.8,310.9 L750.9,305.7 L751.0,301.9 L751.1,305.3 L751.4,319.3 L757.7,316.0 L758.3,312.9 L759.8,317.0 L760.6,313.4 L761.2,297.5 L761.4,304.5 L761.9,313.7 L762.8,300.7 L763.5,304.1 L763.6,310.6 L763.6,288.8 L763.9,285.4 L765.0,294.0 L765.5,275.1 L766.3,271.5 L766.9,274.1 L767.6,252.1 L767.8,256.4 L768.0,243.1 L768.9,221.0 L769.7,200.8 L770.8,203.4 L773.2,208.6 L773.6,198.8 L773.9,182.9 L774.7,179.6 L779.5,175.2 L779.5,188.8 L779.7,195.3 L779.7,198.6 L780.4,208.4 L780.6,200.5 L781.6,202.9 L782.1,206.6 L782.1,203.0 L782.2,192.4 L782.3,184.1 L782.5,186.5 L783.8,179.3 L784.1,182.4 L784.4,187.2 L784.9,199.6 L785.5,210.5 L787.0,205.7 L787.7,217.6 L787.8,223.8 L787.9,216.3 L788.3,219.1 L788.5,209.5 L788.6,204.6 L790.0,197.2 L790.5,183.8 L790.7,203.7 L791.2,197.6 L792.1,199.9 L792.2,204.9 L792.2,208.8 L792.3,204.3 L792.8,216.4 L792.9,225.5 L792.9,220.9 L793.0,226.8 L794.3,231.6 L794.4,234.4 L794.6,237.4 L796.3,240.9 L796.9,245.3 L796.9,249.7 L797.0,245.3 L797.5,257.4 L798.6,278.9 L799.1,282.9 L799.3,280.0 L800.8,273.5 L801.2,275.7 L802.3,270.7 L803.5,284.2 L803.7,279.4 L806.6,275.5 L806.9,278.1 L807.0,285.6 L807.4,295.6 L807.9,286.9 L808.3,289.4 L808.6,291.9 L808.6,294.6 L808.6,291.2 L808.9,287.2 L809.0,297.2 L809.1,310.0 L809.2,279.2 L809.3,292.2 L809.3,277.3 L809.9,263.6 L809.9,266.1 L810.7,258.1 L810.7,253.1 L811.8,260.8 L812.0,263.7 L813.9,271.1 L814.2,260.8 L817.1,267.7 L817.6,263.2 L817.7,267.6 L817.8,271.1 L818.0,276.4 L818.1,298.9 L819.5,295.2 L819.8,291.9 L820.6,310.9 L821.3,295.4 L821.7,297.8 L822.0,300.6 L822.3,289.2 L822.3,280.5 L822.4,304.3 L822.7,300.8 L822.8,304.7 L824.6,311.0 L825.7,321.4 L825.8,325.5 L825.9,327.8 L826.1,341.6 L826.3,293.9 L826.4,277.9 L828.8,267.2 L834.4,254.2 L835.1,244.1 L836.7,232.7 L836.8,242.8 L837.2,225.2 L838.6,237.0 L841.5,233.9 L841.6,237.5 L842.2,228.5 L842.9,246.0 L843.0,249.7 L843.2,241.5 L843.4,244.6 L844.7,240.2 L845.3,235.2 L846.1,232.0 L846.3,237.5 L846.3,240.4 L846.7,233.3 L846.8,235.5 L847.1,228.7 L848.1,214.5 L848.8,207.2 L849.3,203.6 L849.4,198.3 L850.2,214.9 L850.8,206.8 L851.6,216.7 L851.7,210.0 L853.3,204.1 L855.0,195.5 L855.4,187.4 L856.3,195.8 L857.0,203.0 L857.0,191.5 L857.2,183.2 L857.6,204.8 L857.7,207.7 L857.8,192.9 L857.9,189.6 L858.0,180.2 L858.1,165.0 L858.1,184.3 L858.2,189.1 L858.5,185.2 L858.7,191.1 L859.1,209.5 L861.2,204.7 L861.4,213.4 L862.0,221.2 L862.1,202.6 L862.1,204.9 L862.1,207.3 L863.5,198.4 L863.8,201.2 L865.2,212.1 L865.3,207.4 L865.7,211.5 L865.7,199.7 L865.9,195.6 L866.7,199.3 L866.8,203.7 L866.9,192.5 L867.3,205.0 L867.4,207.2 L867.4,202.7 L867.6,215.0 L867.6,219.1 L867.8,208.1 L867.9,204.7 L868.1,215.3 L868.3,223.6 L869.6,227.0 L869.7,236.1 L870.0,242.1 L870.2,235.9 L870.4,230.1 L870.7,238.4 L871.6,229.1 L872.4,243.3 L873.4,230.3 L873.7,226.4 L873.8,224.9 L874.4,220.6 L875.7,211.4 L875.8,222.4 L876.0,218.7 L907.7,212.9 L909.2,220.0 L911.2,229.2 L914.0,225.4 L918.3,240.6 L921.1,249.6 L922.2,240.9 L923.7,233.2 L923.8,225.6 L923.9,218.6 L924.3,227.7 L924.5,237.8 L924.5,243.4 L934.6,246.9 L937.8,253.0 L940.9,267.3 L941.5,272.9 L941.7,242.7 L942.1,237.3 L942.4,227.5 L942.8,216.1 L943.3,224.7 L943.4,242.0 L947.5,246.9 L947.5,266.8 L949.6,306.7 L954.2,309.2 L962.1,312.1 L963.0,308.1 L963.9,302.0 L964.6,309.2 L964.6,323.9 L966.7,328.3 L968.0,330.7 L968.2,347.2 L968.7,335.8 L972.8,340.0 L973.1,345.2 L973.2,343.7 L976.6,344.9 L978.6,360.5 L979.2,378.4 L979.3,373.7 L981.7,368.7 L985.6,384.3 L987.7,400.3 L987.9,404.3 L989.5,409.9 L990.1,406.4 L993.5,410.0 L995.2,414.2 L995.4,416.5 L997.5,410.2 L997.7,427.9 L1001.5,432.5 L1002.0,437.3 L1002.2,447.8 L1002.3,443.1 L1002.3,446.1 L1003.6,448.5 L1003.7,453.2 L1004.7,461.9 L1006.6,453.6 L1006.6,443.7 L1007.9,434.0 L1008.0,424.9 L1008.8,406.5 L1010.2,397.6 L1011.7,391.3 L1012.2,378.0 L1012.3,385.4 L1012.3,382.1 L1012.4,387.1 L1012.6,370.6 L1014.3,364.5 L1014.8,373.7 L1015.0,369.2 L1015.9,363.6 L1016.3,377.4 L1016.4,379.8 L1020.8,364.2 L1021.0,374.7 L1021.2,380.6 L1022.3,383.2 L1022.4,369.1 L1022.9,375.6 L1023.5,371.7 L1023.7,375.6 L1023.9,362.6 L1024.6,358.0 L1024.7,361.5 L1024.7,363.7 L1025.3,367.9 L1027.1,380.4 L1027.1,388.8 L1027.2,383.1 L1027.4,395.7 L1027.4,398.2 L1029.4,401.8 L1030.8,395.7 L1031.2,408.2 L1031.2,425.5 L1031.6,417.2 L1031.6,433.1 L1032.4,432.1 L1035.8,440.2 L1035.8,444.6 L1037.3,451.6 L1037.3,447.4 L1042.1,451.3 L1043.3,433.0 L1044.2,435.9 L1044.3,439.4 L1047.3,446.3 L1048.6,448.6 L1049.8,454.9 L1049.9,462.4 L1049.9,456.7 L1050.1,450.6 L1050.4,429.3 L1050.4,440.5 L1050.5,447.3 L1051.1,446.0 L1051.1,432.5 L1051.2,428.7 L1051.3,435.1 L1051.5,451.6 L1051.6,457.9 L1051.6,466.0 L1051.8,462.1 L1051.8,464.6 L1051.9,452.9 L1052.0,448.3 L1052.0,453.8 L1052.0,458.1 L1056.5,450.2 L1058.0,453.2 L1059.0,461.1 L1059.1,456.6 L1059.7,459.0 L1059.8,453.7 L1059.9,449.5 L1060.1,452.1 L1060.2,455.7 L1060.2,462.2 L1060.4,458.6 L1060.5,450.2 L1060.6,443.4 L1060.7,436.9 L1060.8,452.6 L1065.9,464.8 L1066.0,461.2 L1066.2,436.6 L1068.2,417.3 L1072.5,421.6 L1072.8,409.2 L1072.9,383.2 L1073.4,402.5 L1074.8,410.8 L1077.5,401.2 L1077.7,412.7 L1077.7,418.0 L1081.0,424.4 L1081.7,409.8 L1082.7,401.8 L1083.3,404.3 L1083.3,397.8 L1087.0,389.4 L1087.0,398.7 L1087.4,401.8 L1088.1,387.4 L1089.8,390.9 L1092.9,393.1 L1092.9,373.1 L1093.2,357.3 L1093.5,341.1 L1093.8,351.3 L1094.1,361.5 L1094.5,368.6 L1095.8,350.1 L1096.1,354.8 L1096.9,363.5 L1098.4,319.3 L1098.7,327.2 L1100.6,313.2 L1101.3,309.3 L1101.9,311.6 L1103.3,314.9 L1104.2,324.5 L1104.4,331.7 L1111.1,341.1 L1111.2,350.2 L1112.6,363.9 L1115.2,360.3 L1115.3,356.0 L1115.5,360.6 L1117.1,363.1 L1117.5,379.5 L1118.9,387.4 L1120.8,382.7 L1121.8,385.3 L1122.3,379.8 L1123.6,382.3 L1125.1,378.1 L1126.5,381.2 L1131.6,377.5 L1131.6,373.8 L1133.4,382.2 L1137.5,393.3 L1137.9,384.0 L1138.1,355.7 L1138.3,370.8 L1139.8,380.5 L1140.3,383.4 L1140.4,396.4 L1140.7,411.1 L1141.0,405.5 L1141.3,412.6 L1141.5,421.5 L1141.6,415.0 L1142.1,407.4 L1142.3,417.9 L1143.2,422.4 L1143.4,436.9 L1143.9,445.8 L1144.2,417.7 L1144.5,412.1 L1144.5,415.2 L1144.6,418.6 L1144.7,429.2 L1144.8,432.7 L1145.4,457.4 L1146.0,439.6 L1146.4,454.2 L1147.0,431.5 L1148.2,435.3 L1148.6,430.1 L1149.4,438.4 L1149.8,447.1 L1150.1,454.0 L1150.2,456.9 L1150.5,464.4 L1150.5,461.0 L1151.1,465.5 L1151.6,461.6 L1152.5,465.9 L1152.9,468.4 L1156.1,454.4 L1158.3,466.9 L1158.4,458.8 L1160.6,439.2 L1161.3,434.6 L1161.4,445.1 L1162.1,461.1 L1162.7,468.5 L1162.8,463.1 L1162.9,455.7 L1163.1,452.4 L1163.4,428.9 L1164.4,433.2 L1164.9,436.6 L1165.1,440.3 L1165.2,435.4 L1165.4,442.5 L1166.9,447.1 L1167.1,451.6 L1167.6,457.3 L1168.2,453.6 L1168.3,450.3 L1168.8,440.6 L1169.2,453.0 L1169.2,458.1 L1169.7,461.3 L1169.7,480.2 L1171.3,484.0 L1171.9,489.5 L1172.5,494.9 L1172.8,508.2 L1174.9,504.0 L1174.9,499.3 L1175.6,510.8 L1176.6,513.6 L1177.0,507.9 L1177.0,498.9 L1177.1,503.8 L1177.3,512.6 L1177.6,521.2 L1177.7,528.6 L1177.9,538.4 L1178.0,532.6 L1179.2,536.3 L1179.8,552.6 L1180.1,555.1 L1180.2,542.5 L1180.8,545.9 L1181.3,552.5 L1181.8,548.8 L1181.9,538.5 L1182.2,529.5 L1183.8,533.6 L1184.4,522.4 L1185.1,514.1 L1186.2,525.9 L1187.6,534.1 L1188.2,529.2 L1188.3,531.5 L1188.7,537.8 L1189.3,548.5 L1189.9,561.5 L1191.2,551.0 L1192.2,560.1 L1192.4,569.6 L1193.4,539.4 L1193.5,527.2 L1194.3,531.1 L1199.9,526.5 L1201.0,537.0 L1201.8,529.7 L1203.4,536.1 L1203.8,530.6 L1204.0,543.6 L1204.0,548.8 L1204.1,544.6 L1205.2,526.6 L1205.2,529.1 L1206.0,518.4 L1206.1,522.3 L1207.4,531.6 L1207.4,551.7 L1207.7,545.9 L1208.1,532.5 L1208.3,536.1 L1208.9,541.4 L1209.1,537.8 L1209.7,515.7 L1210.0,507.8 L1210.3,517.1 L1210.4,526.8 L1210.9,534.9 L1212.5,528.4 L1212.6,530.7 L1213.0,518.0 L1213.1,512.9 L1214.6,505.8 L1214.6,492.8 L1214.6,503.6 L1217.3,517.3 L1218.7,508.6 L1218.8,503.3 L1219.2,482.5 L1222.7,489.4 L1222.8,494.3 L1223.5,496.7 L1225.5,507.3 L1225.7,520.3 L1225.9,454.5 L1226.1,451.2 L1226.9,438.8 L1227.6,440.9 L1228.3,452.1 L1229.7,457.3 L1231.3,449.5 L1231.5,461.6 L1231.7,467.9 L1232.1,456.4 L1233.5,450.4 L1234.1,445.7 L1234.4,462.3 L1234.7,471.8 L1235.3,474.3 L1236.1,477.8 L1236.3,481.9 L1236.3,434.2 L1236.4,425.8 L1240.7,437.5 L1242.4,408.6 L1243.9,414.3 L1245.9,420.3 L1246.4,416.5 L1246.5,409.6 L1246.7,388.6 L1246.9,401.9 L1247.1,411.8 L1250.0,431.8 L1251.3,428.5 L1254.3,425.0 L1257.0,427.1 L1257.2,430.0 L1257.4,446.2 L1257.5,440.8 L1258.3,443.1 L1258.8,457.3 L1259.1,463.9 L1263.7,469.4 L1267.2,479.5 L1272.3,496.1 L1275.4,499.3 L1276.5,502.4 L1276.9,514.0 L1277.5,489.4 L1278.1,504.6 L1280.0,500.4 L1280.6,490.9 L1281.4,494.0 L1286.5,500.5 L1288.7,489.1 L1290.4,494.5 L1290.5,503.4 L1291.1,506.6 L1293.4,519.1 L1294.6,530.5 L1294.7,535.2 L1295.5,530.8 L1297.2,542.0 L1299.2,547.9 L1301.8,550.7 L1302.7,568.5 L1303.0,564.7 L1303.2,574.7 L1303.6,583.9 L1303.6,577.3 L1304.9,573.5 L1305.0,590.0" fill="none" stroke="#60a5fa" stroke-width="4"/>
<circle cx="1305.0" cy="590.0" r="5" fill="#60a5fa"/>
<line x1="95.0" y1="675" x2="95.0" y2="681" stroke="#94a3b8"/>
<text x="95.0" y="699" text-anchor="middle" fill="#94a3b8" font-size="13" font-family="Arial">2026-03-14</text>
<line x1="296.7" y1="675" x2="296.7" y2="681" stroke="#94a3b8"/>
<text x="296.7" y="699" text-anchor="middle" fill="#94a3b8" font-size="13" font-family="Arial">2026-03-15</text>
<line x1="498.3" y1="675" x2="498.3" y2="681" stroke="#94a3b8"/>
<text x="498.3" y="699" text-anchor="middle" fill="#94a3b8" font-size="13" font-family="Arial">2026-03-16</text>
<line x1="700.0" y1="675" x2="700.0" y2="681" stroke="#94a3b8"/>
<text x="700.0" y="699" text-anchor="middle" fill="#94a3b8" font-size="13" font-family="Arial">2026-03-17</text>
<line x1="901.7" y1="675" x2="901.7" y2="681" stroke="#94a3b8"/>
<text x="901.7" y="699" text-anchor="middle" fill="#94a3b8" font-size="13" font-family="Arial">2026-03-18</text>
<line x1="1103.3" y1="675" x2="1103.3" y2="681" stroke="#94a3b8"/>
<text x="1103.3" y="699" text-anchor="middle" fill="#94a3b8" font-size="13" font-family="Arial">2026-03-19</text>
<line x1="1305.0" y1="675" x2="1305.0" y2="681" stroke="#94a3b8"/>
<text x="1305.0" y="699" text-anchor="middle" fill="#94a3b8" font-size="13" font-family="Arial">2026-03-20</text>
<text x="95" y="775" fill="#cbd5e1" font-size="14" font-family="Arial">Latest active point: 2026-03-20T01:08:39.614000+00:00 | Realized=-49.14</text>
</svg>